<svg width="59" height="55" viewBox="0 0 59 55" fill="none" xmlns="http://www.w3.org/2000/svg">
<path id="Vector" d="M17.4712 17.4712H42.2788M17.4712 25.7404H29.875M3 29.9026C3 34.3128 6.09545 38.1553 10.4616 38.7975C13.5736 39.2551 16.7187 39.6051 19.8968 39.8422C20.8615 39.9139 21.7436 40.421 22.2811 41.2232L29.875 52.6154L37.4689 41.2232C37.7353 40.827 38.0885 40.4967 38.5016 40.2574C38.9148 40.0181 39.377 39.8761 39.8532 39.8422C43.0097 39.6065 46.1568 39.2581 49.2884 38.7975C53.6546 38.1553 56.75 34.3156 56.75 29.8998V13.3117C56.75 8.89597 53.6546 5.05629 49.2884 4.41405C42.8603 3.47056 36.3719 2.99796 29.875 3.00001C23.2817 3.00001 16.7986 3.48238 10.4616 4.41405C6.09545 5.05629 3 8.89873 3 13.3117V29.8998V29.9026Z" stroke="white" stroke-width="4.13461" stroke-linecap="round" stroke-linejoin="round"/>
</svg>
