<svg width="60" height="56" viewBox="0 0 60 56" fill="none" xmlns="http://www.w3.org/2000/svg">
<path id="Vector" d="M14.3636 14.3636L23.4545 21.1818L14.3636 28M28 28H37.0909M9.81818 53H50.7273C52.5356 53 54.2698 52.2817 55.5485 51.003C56.8271 49.7243 57.5455 47.9901 57.5455 46.1818V9.81818C57.5455 8.00989 56.8271 6.27566 55.5485 4.997C54.2698 3.71834 52.5356 3 50.7273 3H9.81818C8.00989 3 6.27566 3.71834 4.997 4.997C3.71834 6.27566 3 8.00989 3 9.81818V46.1818C3 47.9901 3.71834 49.7243 4.997 51.003C6.27566 52.2817 8.00989 53 9.81818 53Z" stroke="white" stroke-width="4.54545" stroke-linecap="round" stroke-linejoin="round"/>
</svg>
