<svg width="25" height="19" viewBox="0 0 25 19" fill="none" xmlns="http://www.w3.org/2000/svg">
<g id="discord-mark-blue 1" clip-path="url(#clip0_4052_615)">
<path id="Vector" d="M21.0293 2.08544C19.4405 1.35806 17.7632 0.842031 16.0404 0.550537C15.8046 0.971994 15.5913 1.40562 15.4013 1.84959C13.5661 1.57305 11.6998 1.57305 9.86462 1.84959C9.67454 1.40566 9.46122 0.972045 9.22556 0.550537C7.50157 0.844493 5.82322 1.36174 4.23285 2.08924C1.07556 6.76051 0.219664 11.3158 0.647611 15.8063C2.4966 17.1725 4.56615 18.2114 6.76629 18.8781C7.2617 18.2117 7.70007 17.5049 8.07676 16.7649C7.3613 16.4977 6.67075 16.168 6.01311 15.7797C6.18619 15.6542 6.35546 15.5249 6.51903 15.3993C8.43262 16.2992 10.5212 16.7658 12.6358 16.7658C14.7504 16.7658 16.839 16.2992 18.7526 15.3993C18.9181 15.5344 19.0873 15.6637 19.2585 15.7797C18.5996 16.1687 17.9078 16.499 17.1911 16.7668C17.5673 17.5064 18.0057 18.2127 18.5015 18.8781C20.7036 18.2141 22.7747 17.1756 24.624 15.8082C25.1261 10.6006 23.7662 6.08721 21.0293 2.08544ZM8.61882 13.0447C7.42628 13.0447 6.44105 11.9624 6.44105 10.6311C6.44105 9.29966 7.39205 8.20792 8.61502 8.20792C9.838 8.20792 10.8156 9.29966 10.7947 10.6311C10.7738 11.9624 9.83419 13.0447 8.61882 13.0447ZM16.6528 13.0447C15.4584 13.0447 14.4769 11.9624 14.4769 10.6311C14.4769 9.29966 15.4279 8.20792 16.6528 8.20792C17.8777 8.20792 18.8477 9.29966 18.8268 10.6311C18.8058 11.9624 17.8682 13.0447 16.6528 13.0447Z" fill="white"/>
</g>
<defs>
<clipPath id="clip0_4052_615">
<rect width="24.1818" height="18.3275" fill="white" transform="translate(0.544922 0.550537)"/>
</clipPath>
</defs>
</svg>
