<svg width="30" height="24" viewBox="0 0 30 24" fill="none" xmlns="http://www.w3.org/2000/svg">
<g id="discord-mark-blue 1" clip-path="url(#clip0_4052_537)">
<path id="Vector" d="M25.1965 2.57183C23.2446 1.67816 21.1839 1.04417 19.0671 0.686035C18.7775 1.20384 18.5154 1.73659 18.282 2.28207C16.0272 1.9423 13.7343 1.9423 11.4796 2.28207C11.246 1.73665 10.9839 1.2039 10.6944 0.686035C8.5763 1.04719 6.51426 1.68269 4.56032 2.5765C0.68124 8.31567 -0.370317 13.9123 0.155461 19.4295C2.42715 21.1079 4.96981 22.3844 7.67293 23.2034C8.28159 22.3848 8.82018 21.5163 9.28298 20.6072C8.40396 20.2789 7.55554 19.8739 6.74756 19.3967C6.96021 19.2425 7.16818 19.0836 7.36914 18.9294C9.72019 20.035 12.2862 20.6083 14.8843 20.6083C17.4823 20.6083 20.0484 20.035 22.3994 18.9294C22.6027 19.0953 22.8107 19.2542 23.021 19.3967C22.2114 19.8746 21.3615 20.2805 20.4809 20.6095C20.9431 21.5182 21.4818 22.3859 22.0909 23.2034C24.7964 22.3876 27.341 21.1118 29.6131 19.4318C30.23 13.0337 28.5592 7.48844 25.1965 2.57183ZM9.94897 16.0364C8.4838 16.0364 7.27334 14.7068 7.27334 13.071C7.27334 11.4353 8.44173 10.094 9.94429 10.094C11.4469 10.094 12.648 11.4353 12.6223 13.071C12.5966 14.7068 11.4422 16.0364 9.94897 16.0364ZM19.8196 16.0364C18.3521 16.0364 17.1463 14.7068 17.1463 13.071C17.1463 11.4353 18.3147 10.094 19.8196 10.094C21.3245 10.094 22.5162 11.4353 22.4905 13.071C22.4648 14.7068 21.3128 16.0364 19.8196 16.0364Z" fill="#5865F2"/>
</g>
<defs>
<clipPath id="clip0_4052_537">
<rect width="29.71" height="22.5173" fill="white" transform="translate(0.0292969 0.686035)"/>
</clipPath>
</defs>
</svg>
