<svg width="28" height="28" viewBox="0 0 28 28" fill="none" xmlns="http://www.w3.org/2000/svg">
<g id="github-mark-white 1" clip-path="url(#clip0_4052_611)">
<path id="Vector" fill-rule="evenodd" clip-rule="evenodd" d="M13.9583 0C6.23971 0 0 6.28571 0 14.062C0 20.278 3.998 25.5397 9.54429 27.402C10.2377 27.542 10.4917 27.0994 10.4917 26.7271C10.4917 26.4011 10.4689 25.2837 10.4689 24.1194C6.586 24.9577 5.77743 22.4431 5.77743 22.4431C5.15343 20.8134 4.22886 20.3946 4.22886 20.3946C2.958 19.5331 4.32143 19.5331 4.32143 19.5331C5.73114 19.6263 6.47086 20.9766 6.47086 20.9766C7.71857 23.1183 9.72914 22.5131 10.538 22.1406C10.6534 21.2326 11.0234 20.604 11.4163 20.2549C8.31943 19.9289 5.06114 18.7183 5.06114 13.3169C5.06114 11.7803 5.61543 10.5231 6.49371 9.54543C6.35514 9.19629 5.86971 7.75257 6.63257 5.82029C6.63257 5.82029 7.81114 5.44771 10.4686 7.26371C11.6063 6.9559 12.7796 6.79932 13.9583 6.798C15.1369 6.798 16.3383 6.96114 17.4477 7.26371C20.1054 5.44771 21.284 5.82029 21.284 5.82029C22.0469 7.75257 21.5611 9.19629 21.4226 9.54543C22.324 10.5231 22.8554 11.7803 22.8554 13.3169C22.8554 18.7183 19.5971 19.9054 16.4771 20.2549C16.9857 20.6971 17.4246 21.5351 17.4246 22.8623C17.4246 24.748 17.4017 26.2614 17.4017 26.7269C17.4017 27.0994 17.656 27.542 18.3491 27.4023C23.8954 25.5394 27.8934 20.278 27.8934 14.062C27.9163 6.28571 21.6537 0 13.9583 0Z" fill="white"/>
</g>
<defs>
<clipPath id="clip0_4052_611">
<rect width="28" height="27.4286" fill="white"/>
</clipPath>
</defs>
</svg>
